<svg xmlns="http://www.w3.org/2000/svg" viewBox="0 0 800 400" style="background-color: #1c1c1c; font-family: sans-serif;">
    <rect x="0" y="0" width="800" height="400" fill="#1c1c1c" />
    <line x1="50" y1="360" x2="750" y2="360" stroke="#444" stroke-width="2" />
    <line x1="50" y1="40" x2="50" y2="360" stroke="#444" stroke-width="2" />
    <text x="50" y="25" fill="#aaa" font-size="16">1998W</text>
    <text x="750" y="390" fill="#aaa" font-size="16" text-anchor="middle">9906s</text>
    <text x="400.0" y="25" fill="#fff" font-size="20" text-anchor="middle" font-weight="bold">Aufnahmevorschau</text>
    <polyline points="50.0,359.5 51.6,360.0 52.0,357.6 52.3,357.1 53.1,358.9 53.5,359.2 53.8,358.6 56.7,359.5 57.3,359.2 57.6,358.6 60.3,357.6 60.7,355.8 62.0,355.4 62.4,354.7 62.7,352.5 63.1,353.1 63.4,351.2 63.8,350.7 64.1,351.8 64.5,351.7 66.3,356.3 66.6,357.1 71.3,353.9 71.6,356.8 72.0,358.1 72.3,355.0 72.6,355.0 72.7,356.0 73.0,356.8 73.4,357.1 73.7,357.6 75.1,357.1 76.0,358.9 76.4,359.4 76.7,358.6 79.1,359.5 79.7,358.6 82.5,358.1 82.8,355.8 84.1,355.4 84.5,354.7 84.8,352.2 85.2,353.1 85.4,352.8 85.5,350.7 86.1,351.7 88.0,351.8 88.2,353.8 88.6,355.8 89.0,356.2 89.4,351.0 93.3,351.4 93.7,355.8 94.1,356.2 94.5,358.1 94.8,354.9 95.2,356.8 95.5,354.9 95.9,353.3 95.9,353.1 96.4,351.0 96.7,350.7 97.1,351.7 98.5,351.8 99.2,55.2 99.5,58.6 99.9,60.2 100.2,60.5 100.6,59.6 101.0,58.4 101.1,58.3 101.3,58.1 101.7,58.8 102.2,58.3 102.7,58.0 103.2,58.3 103.6,62.4 103.8,62.0 104.2,62.8 104.6,57.6 105.1,58.6 105.6,58.0 106.4,58.3 106.9,58.6 107.5,59.9 107.8,58.6 108.2,58.3 109.4,58.0 109.9,58.3 110.3,58.0 111.0,58.3 111.3,58.0 111.6,58.1 112.0,58.3 112.4,57.8 112.8,59.6 113.2,59.2 113.5,59.6 114.2,59.9 114.2,59.7 114.7,58.4 115.8,58.1 116.1,62.3 116.5,62.6 116.9,62.9 117.2,67.4 117.6,66.4 117.9,63.7 118.5,63.4 118.8,63.1 119.2,63.6 119.5,63.4 119.6,64.8 120.2,65.2 120.5,64.7 121.0,64.4 121.7,64.7 122.1,65.0 122.6,63.2 122.9,60.2 123.4,60.5 123.8,58.8 124.3,59.1 124.7,58.9 124.9,58.6 125.8,58.9 126.2,58.6 126.5,59.1 127.0,59.4 127.3,58.9 127.7,58.6 128.0,59.2 128.6,60.4 128.9,60.7 129.3,60.0 129.6,60.4 129.9,60.7 130.4,61.6 130.7,65.0 131.1,64.7 131.5,60.0 131.8,58.0 132.2,57.5 132.5,58.0 132.9,57.6 133.3,58.0 133.6,57.6 134.0,58.0 134.5,58.6 135.4,58.3 136.3,58.0 136.6,57.6 137.0,60.4 137.3,58.3 137.7,64.7 137.8,64.8 138.1,65.0 138.5,60.4 139.1,60.7 139.5,61.0 140.4,62.1 140.7,60.7 141.1,61.0 141.4,356.0 141.8,355.7 142.2,351.4 142.5,351.0 154.9,88.4 155.2,63.7 155.6,64.5 155.9,59.9 156.1,59.6 156.3,59.4 156.6,59.7 157.0,59.4 157.4,59.7 157.8,59.4 158.2,60.0 158.5,59.4 158.8,59.1 158.9,58.9 159.8,59.2 167.2,59.4 168.2,351.5 168.4,352.3 168.8,355.7 169.1,356.0 169.5,350.9 177.9,60.2 178.3,62.9 178.6,63.4 179.0,59.4 179.3,58.9 180.0,59.2 180.4,58.9 180.7,59.2 181.1,63.4 181.9,63.7 182.2,63.4 182.7,63.9 183.1,64.5 183.4,63.7 183.8,64.0 184.1,64.7 184.2,64.5 184.6,61.2 184.9,60.7 185.3,61.2 185.6,60.4 186.0,60.7 186.4,62.8 186.6,60.4 186.7,60.2 187.2,60.5 187.6,60.2 187.9,61.3 188.5,61.0 189.4,61.5 189.8,351.5 191.5,355.7 192.1,356.0 192.5,350.9 205.1,354.1 205.4,355.7 205.8,356.2 206.1,351.5 208.3,351.4 218.7,355.8 219.4,356.2 219.7,350.9 223.7,351.0 225.9,350.9 232.3,355.7 232.5,356.0 233.0,356.2 233.4,351.4 245.8,352.6 246.2,355.7 246.5,356.0 246.9,350.9 252.2,351.0 254.4,350.9 263.8,356.2 264.1,355.7 264.5,356.0 264.8,351.4 265.4,350.7 265.8,351.4 266.9,350.6 267.2,351.4 268.3,350.7 268.7,351.4 269.2,350.7 269.6,351.4 270.1,351.0 270.5,351.4 271.1,351.0 271.4,351.4 272.0,351.0 272.4,351.4 273.0,350.6 273.3,351.4 273.9,350.7 274.2,351.4 275.3,350.6 275.6,351.4 276.2,350.6 276.4,351.4 277.1,351.0 277.5,351.4 278.1,351.0 278.5,351.4 279.0,351.0 279.4,351.4 280.0,350.6 280.3,351.4 280.9,350.6 281.2,351.4 281.6,355.7 282.2,356.0 282.6,351.0 283.0,350.9 285.2,351.0 299.4,354.7 299.7,355.7 300.1,356.0 300.5,351.4 301.2,351.0 301.5,351.4 302.1,351.0 302.4,351.4 303.0,350.6 303.4,351.4 303.9,350.6 304.3,351.4 304.9,351.2 305.3,350.6 305.7,351.4 306.2,350.6 306.6,351.4 307.7,350.7 308.0,351.4 308.6,350.9 308.9,351.4 309.5,350.9 309.9,351.4 310.9,350.6 311.3,351.4 311.8,350.7 312.2,351.4 313.2,350.6 313.6,351.4 314.7,350.6 315.0,351.4 315.6,350.9 315.9,351.4 316.5,351.0 316.8,351.4 317.2,355.0 317.6,355.7 317.9,356.0 318.1,353.9 318.3,350.7 320.3,350.9 335.1,351.8 335.4,355.7 335.9,356.2 336.2,351.4 336.8,350.6 337.2,351.4 337.8,350.6 337.9,351.4 338.7,351.0 339.0,351.4 339.6,351.0 340.0,351.4 340.1,350.7 340.6,351.0 340.9,351.4 341.5,351.0 341.9,351.4 342.4,350.6 342.8,351.4 343.4,350.6 343.7,351.4 344.8,350.6 345.1,351.4 345.7,351.0 346.0,351.4 346.6,351.0 347.0,351.4 347.6,350.9 347.9,351.4 348.5,350.9 348.8,351.4 349.4,350.6 355.6,351.4 355.9,350.9 357.3,351.0 358.5,350.9 370.8,356.2 371.1,355.7 371.5,356.0 371.8,351.4 372.5,350.7 372.8,351.4 373.4,350.7 373.7,351.4 374.8,350.6 375.2,351.4 376.2,350.6 376.6,351.4 377.1,351.0 377.5,351.4 378.0,351.0 378.4,351.4 379.0,351.0 379.3,351.4 380.0,351.0 380.3,351.4 380.9,350.6 381.2,351.4 381.8,350.6 382.1,351.4 383.2,350.6 383.6,351.4 384.1,351.0 384.5,351.4 384.6,350.7 385.0,351.0 385.4,351.4 386.0,351.0 386.4,351.4 387.0,350.9 387.3,351.4 387.9,350.6 388.2,351.4 388.6,355.7 389.3,356.0 389.6,350.7 390.4,350.9 393.3,350.7 402.1,350.9 405.3,351.0 406.4,354.6 406.7,355.7 407.2,356.2 407.5,351.4 408.2,351.0 408.5,351.4 409.1,350.6 409.4,351.4 410.0,350.6 410.3,351.4 411.4,350.6 411.8,351.4 412.3,350.6 412.7,351.4 413.2,351.0 413.6,351.4 414.2,351.0 414.5,351.4 415.2,351.0 415.5,351.4 416.1,350.6 416.4,351.4 417.0,350.6 417.3,351.4 418.4,350.6 418.8,351.4 419.3,351.0 419.5,351.4 420.2,351.0 420.6,351.4 421.2,351.0 421.6,351.4 422.2,350.9 422.4,351.4 423.1,350.6 423.4,351.4 424.0,350.6 424.3,356.2 424.7,355.7 425.0,356.3 425.3,350.9 425.4,350.7 428.2,350.9 442.2,356.2 442.5,355.7 442.9,356.0 443.2,351.4 443.8,350.7 444.2,351.4 445.3,350.6 445.6,351.4 446.7,350.6 447.0,351.4 447.6,350.6 447.9,351.4 448.5,351.0 448.9,351.4 449.4,351.0 449.8,351.4 450.4,351.0 450.8,351.4 451.3,350.6 451.4,351.4 452.3,350.6 452.6,351.4 453.7,350.6 454.0,351.4 454.6,351.0 454.9,351.4 455.5,351.0 455.9,351.4 456.5,351.0 456.8,351.4 457.4,350.9 457.8,351.4 458.3,350.6 458.7,351.4 459.3,350.6 459.6,351.4 460.0,355.7 460.1,356.0 461.0,350.9 464.5,352.3 464.8,355.7 465.3,356.0 465.6,351.4 466.2,350.7 466.6,351.4 467.7,350.6 468.0,351.4 469.4,353.3 469.8,353.9 470.1,355.2 470.5,358.4 470.8,356.0 471.2,357.1 471.9,357.8 473.3,357.1 474.4,357.9 474.6,359.4 474.7,358.6 477.8,359.5 478.2,360.0 478.5,358.6 481.4,356.2 481.7,355.8 483.0,356.3 483.3,355.7 483.7,356.0 484.1,355.7 486.0,356.2 486.2,356.0 486.4,355.7 486.7,356.2 487.1,352.3 487.7,351.8 488.1,352.3 488.7,352.0 489.0,352.3 489.6,352.0 489.9,352.5 491.0,351.8 491.3,352.3 492.4,351.7 492.8,352.5 493.3,352.2 493.7,352.5 494.3,352.2 494.7,351.8 494.9,352.3 495.6,352.0 496.0,352.3 496.6,352.0 496.9,352.5 498.0,351.8 498.3,352.5 499.4,351.7 499.7,352.5 500.3,352.2 500.7,352.5 501.7,351.8 502.1,352.3 503.0,355.5 503.4,355.8 503.6,355.7 503.8,356.2 504.2,355.8 504.8,355.5 505.2,355.8 505.8,355.4 506.1,355.8 506.7,355.4 507.0,355.8 507.9,353.3 508.3,358.1 508.7,355.7 509.4,357.0 510.2,357.6 511.7,357.1 512.5,358.1 512.9,359.0 513.2,358.6 515.8,359.5 516.4,358.6 519.5,356.6 519.8,355.8 521.2,356.3 521.5,355.7 521.9,356.0 522.2,355.7 524.2,76.1 524.6,62.6 524.9,63.4 525.3,62.8 526.0,61.8 526.3,62.6 526.7,62.0 527.1,61.6 527.5,61.0 527.8,61.6 528.4,61.2 528.7,61.6 529.1,62.8 529.4,62.3 529.7,62.4 529.9,62.8 530.2,62.4 530.6,62.1 531.0,61.8 531.5,62.1 532.0,62.4 532.4,62.1 532.6,62.0 533.0,61.8 533.4,62.3 533.7,62.0 534.1,62.3 534.5,61.6 534.9,62.3 535.2,62.0 535.5,62.1 535.8,63.7 536.1,64.2 536.5,62.9 536.8,63.9 537.2,64.7 537.8,66.6 538.1,65.2 538.4,66.4 538.8,66.1 539.2,65.5 539.5,65.8 540.0,66.1 540.5,65.3 540.8,63.4 541.3,63.9 541.7,63.4 542.1,63.7 542.8,63.4 543.4,63.1 544.1,63.4 544.2,63.1 544.5,62.9 544.9,62.4 545.3,63.6 545.6,63.9 546.0,63.4 546.5,63.7 546.9,63.4 547.1,63.7 547.3,64.2 547.7,63.9 548.1,64.8 548.4,64.0 548.8,63.6 549.1,62.6 549.5,62.1 550.0,61.5 550.0,62.3 550.7,62.6 551.3,62.3 551.7,355.5 552.3,355.0 552.7,355.5 553.2,355.0 553.6,355.5 554.7,355.2 555.0,355.5 555.6,355.2 555.8,355.5 556.5,355.2 556.8,355.5 557.9,355.0 558.3,355.5 558.8,355.0 559.2,355.5 560.2,355.0 560.6,355.5 560.9,356.3 561.3,355.7 561.7,356.2 562.0,355.4 562.6,354.9 563.0,355.2 563.6,354.9 563.9,355.4 564.5,354.9 564.6,355.2 565.4,354.9 565.8,355.4 566.8,354.7 567.2,355.2 568.2,354.7 568.6,355.4 569.1,355.0 569.5,355.4 570.1,355.0 570.4,355.2 570.8,355.4 571.5,354.9 571.8,355.2 572.4,354.9 572.7,355.4 573.8,354.7 574.2,355.4 574.5,356.2 574.9,355.7 575.2,356.3 575.6,352.3 576.2,352.5 576.2,351.8 576.6,352.3 577.1,351.8 577.5,352.3 578.0,352.0 578.4,352.3 579.0,352.0 579.1,352.3 579.3,352.5 580.4,351.8 580.7,352.5 581.8,351.7 582.0,352.5 582.1,352.3 583.2,351.8 583.6,352.5 584.1,351.8 584.5,352.3 584.9,352.5 585.0,352.0 585.4,352.3 586.5,351.8 586.8,352.5 587.4,351.8 587.7,352.5 588.1,356.3 588.4,355.7 588.9,356.2 589.2,355.4 589.9,354.7 590.2,355.2 590.8,354.7 591.1,355.4 591.7,355.0 592.2,354.7 592.5,355.4 593.1,354.9 593.5,355.2 593.6,355.0 594.0,354.9 594.4,355.4 595.4,354.7 595.8,355.2 596.4,354.7 596.5,355.2 597.8,354.7 598.1,355.2 599.2,354.7 599.4,355.4 599.5,355.2 600.1,354.9 600.5,355.4 601.0,355.0 601.4,355.4 601.8,356.2 602.1,355.7 602.3,355.8 602.6,352.6 602.9,352.0 603.3,352.3 604.3,351.7 604.7,352.3 605.8,351.7 606.1,352.3 607.2,351.8 607.5,352.3 608.1,351.8 608.4,352.3 609.0,352.0 609.4,352.3 609.9,352.0 610.3,352.3 611.3,351.8 611.7,352.3 612.7,351.7 613.1,352.3 613.5,353.1 613.9,355.7 614.3,356.2 614.7,355.4 615.3,354.7 615.6,355.4 616.2,354.7 616.6,355.2 617.6,354.9 618.0,355.2 618.5,353.4 618.8,357.9 619.5,357.3 619.7,356.0 620.2,357.0 620.9,357.6 622.6,357.9 623.0,358.2 625.5,358.4 639.6,356.3 640.0,357.6 641.1,359.5 643.1,360.0 643.4,359.5 644.3,360.0 644.7,359.5 645.4,360.0 645.8,359.5 646.8,360.0 647.2,359.5 654.1,360.0 654.4,359.5 664.3,360.0 664.6,359.5 665.9,360.0 666.1,359.5 668.7,360.0 669.0,359.5 670.9,360.0 671.2,359.5 672.8,360.0 673.2,359.5 673.5,360.0 673.9,359.5 676.4,360.0 676.7,359.5 677.5,360.0 677.7,359.5 686.0,357.4 686.4,357.6 687.4,357.1 687.7,358.1 688.4,358.4 689.3,358.6 689.6,358.7 692.2,358.9 693.2,359.5 696.8,360.0 697.1,359.5 711.5,360.0 711.8,359.5 726.0,360.0 726.3,359.5 750.0,360.0" stroke="#e6194b" stroke-width="2" stroke-opacity="0.5" fill="none" /><polyline points="51.6,360.0 52.0,357.6 52.3,357.1 53.1,358.9 53.5,359.2 53.8,358.6 56.7,359.5 57.3,359.2 57.6,358.6 60.3,357.6 60.7,355.8 62.0,355.4 62.4,354.7 62.7,352.5 63.1,353.1 63.4,351.2 63.8,350.7 64.1,351.8 64.5,351.7 66.3,356.3 66.6,357.1 71.3,353.9 71.6,356.8 72.0,358.1 72.3,355.0 72.6,355.0 72.7,356.0 73.0,356.8 73.4,357.1 73.7,357.6 75.1,357.1 76.0,358.9 76.4,359.4 76.7,358.6 79.1,359.5 79.7,358.6 82.5,358.1 82.8,355.8 84.1,355.4 84.5,354.7 84.8,352.2 85.2,353.1 85.4,352.8 85.5,350.7 86.1,351.7 88.0,351.8 88.2,353.8 88.6,355.8 89.0,356.2 89.4,351.0 93.3,351.4 93.7,355.8 94.1,356.2 94.5,358.1 94.8,354.9 95.2,356.8 95.5,354.9 95.9,353.3 95.9,353.1 96.4,351.0 96.7,350.7 97.1,351.7 98.5,351.8 99.2,55.2 99.5,58.6 99.9,60.2 100.2,60.5 100.6,59.6 101.0,58.4 101.1,58.3 101.3,58.1 101.7,58.8 102.2,58.3 102.7,58.0 103.2,58.3 103.6,62.4 103.8,62.0 104.2,62.8 104.6,57.6 105.1,58.6 105.6,58.0 106.4,58.3 106.9,58.6 107.5,59.9 107.8,58.6 108.2,58.3 109.4,58.0 109.9,58.3 110.3,58.0 111.0,58.3 111.3,58.0 111.6,58.1 112.0,58.3 112.4,57.8 112.8,59.6 113.2,59.2 113.5,59.6 114.2,59.9 114.2,59.7 114.7,58.4 115.8,58.1 116.1,62.3 116.5,62.6 116.9,62.9 117.2,67.4 117.6,66.4 117.9,63.7 118.5,63.4 118.8,63.1 119.2,63.6 119.5,63.4 119.6,64.8 120.2,65.2 120.5,64.7 121.0,64.4 121.7,64.7 122.1,65.0 122.6,63.2 122.9,60.2 123.4,60.5 123.8,58.8 124.3,59.1 124.7,58.9 124.9,58.6 125.8,58.9 126.2,58.6 126.5,59.1 127.0,59.4 127.3,58.9 127.7,58.6 128.0,59.2 128.6,60.4 128.9,60.7 129.3,60.0 129.6,60.4 129.9,60.7 130.4,61.6 130.7,65.0 131.1,64.7 131.5,60.0 131.8,58.0 132.2,57.5 132.5,58.0 132.9,57.6 133.3,58.0 133.6,57.6 134.0,58.0 134.5,58.6 135.4,58.3 136.3,58.0 136.6,57.6 137.0,60.4 137.3,58.3 137.7,64.7 137.8,64.8 138.1,65.0 138.5,60.4 139.1,60.7 139.5,61.0 140.4,62.1 140.7,60.7 141.1,61.0 141.4,356.0 141.8,355.7 142.2,351.4 142.5,351.0 154.9,88.4 155.2,63.7 155.6,64.5 155.9,59.9 156.1,59.6 156.3,59.4 156.6,59.7 157.0,59.4 157.4,59.7 157.8,59.4 158.2,60.0 158.5,59.4 158.8,59.1 158.9,58.9 159.8,59.2 167.2,59.4 168.2,351.5 168.4,352.3 168.8,355.7 169.1,356.0 169.5,350.9 177.9,60.2 178.3,62.9 178.6,63.4 179.0,59.4 179.3,58.9 180.0,59.2 180.4,58.9 180.7,59.2 181.1,63.4 181.9,63.7 182.2,63.4 182.7,63.9 183.1,64.5 183.4,63.7 183.8,64.0 184.1,64.7 184.2,64.5 184.6,61.2 184.9,60.7 185.3,61.2 185.6,60.4 186.0,60.7 186.4,62.8 186.6,60.4 186.7,60.2 187.2,60.5 187.6,60.2 187.9,61.3 188.5,61.0 189.4,61.5 189.8,351.5 191.5,355.7 192.1,356.0 192.5,350.9 205.1,354.1 205.4,355.7 205.8,356.2 206.1,351.5 208.3,351.4 218.7,355.8 219.4,356.2 219.7,350.9 223.7,351.0 225.9,350.9 232.3,355.7 232.5,356.0 233.0,356.2 233.4,351.4 245.8,352.6 246.2,355.7 246.5,356.0 246.9,350.9 252.2,351.0 254.4,350.9 263.8,356.2 264.1,355.7 264.5,356.0 264.8,351.4 265.4,350.7 265.8,351.4 266.9,350.6 267.2,351.4 268.3,350.7 268.7,351.4 269.2,350.7 269.6,351.4 270.1,351.0 270.5,351.4 271.1,351.0 271.4,351.4 272.0,351.0 272.4,351.4 273.0,350.6 273.3,351.4 273.9,350.7 274.2,351.4 275.3,350.6 275.6,351.4 276.2,350.6 276.4,351.4 277.1,351.0 277.5,351.4 278.1,351.0 278.5,351.4 279.0,351.0 279.4,351.4 280.0,350.6 280.3,351.4 280.9,350.6 281.2,351.4 281.6,355.7 282.2,356.0 282.6,351.0 283.0,350.9 285.2,351.0 299.4,354.7 299.7,355.7 300.1,356.0 300.5,351.4 301.2,351.0 301.5,351.4 302.1,351.0 302.4,351.4 303.0,350.6 303.4,351.4 303.9,350.6 304.3,351.4 304.9,351.2 305.3,350.6 305.7,351.4 306.2,350.6 306.6,351.4 307.7,350.7 308.0,351.4 308.6,350.9 308.9,351.4 309.5,350.9 309.9,351.4 310.9,350.6 311.3,351.4 311.8,350.7 312.2,351.4 313.2,350.6 313.6,351.4 314.7,350.6 315.0,351.4 315.6,350.9 315.9,351.4 316.5,351.0 316.8,351.4 317.2,355.0 317.6,355.7 317.9,356.0 318.1,353.9 318.3,350.7 320.3,350.9 335.1,351.8 335.4,355.7 335.9,356.2 336.2,351.4 336.8,350.6 337.2,351.4 337.8,350.6 337.9,351.4 338.7,351.0 339.0,351.4 339.6,351.0 340.0,351.4 340.1,350.7 340.6,351.0 340.9,351.4 341.5,351.0 341.9,351.4 342.4,350.6 342.8,351.4 343.4,350.6 343.7,351.4 344.8,350.6 345.1,351.4 345.7,351.0 346.0,351.4 346.6,351.0 347.0,351.4 347.6,350.9 347.9,351.4 348.5,350.9 348.8,351.4 349.4,350.6 355.6,351.4 355.9,350.9 357.3,351.0 358.5,350.9 370.8,356.2 371.1,355.7 371.5,356.0 371.8,351.4 372.5,350.7 372.8,351.4 373.4,350.7 373.7,351.4 374.8,350.6 375.2,351.4 376.2,350.6 376.6,351.4 377.1,351.0 377.5,351.4 378.0,351.0 378.4,351.4 379.0,351.0 379.3,351.4 380.0,351.0 380.3,351.4 380.9,350.6 381.2,351.4 381.8,350.6 382.1,351.4 383.2,350.6 383.6,351.4 384.1,351.0 384.5,351.4 384.6,350.7 385.0,351.0 385.4,351.4 386.0,351.0 386.4,351.4 387.0,350.9 387.3,351.4 387.9,350.6 388.2,351.4 388.6,355.7 389.3,356.0 389.6,350.7 390.4,350.9 393.3,350.7 402.1,350.9 405.3,351.0 406.4,354.6 406.7,355.7 407.2,356.2 407.5,351.4 408.2,351.0 408.5,351.4 409.1,350.6 409.4,351.4 410.0,350.6 410.3,351.4 411.4,350.6 411.8,351.4 412.3,350.6 412.7,351.4 413.2,351.0 413.6,351.4 414.2,351.0 414.5,351.4 415.2,351.0 415.5,351.4 416.1,350.6 416.4,351.4 417.0,350.6 417.3,351.4 418.4,350.6 418.8,351.4 419.3,351.0 419.5,351.4 420.2,351.0 420.6,351.4 421.2,351.0 421.6,351.4 422.2,350.9 422.4,351.4 423.1,350.6 423.4,351.4 424.0,350.6 424.3,356.2 424.7,355.7 425.0,356.3 425.3,350.9 425.4,350.7 428.2,350.9 442.2,356.2 442.5,355.7 442.9,356.0 443.2,351.4 443.8,350.7 444.2,351.4 445.3,350.6 445.6,351.4 446.7,350.6 447.0,351.4 447.6,350.6 447.9,351.4 448.5,351.0 448.9,351.4 449.4,351.0 449.8,351.4 450.4,351.0 450.8,351.4 451.3,350.6 451.4,351.4 452.3,350.6 452.6,351.4 453.7,350.6 454.0,351.4 454.6,351.0 454.9,351.4 455.5,351.0 455.9,351.4 456.5,351.0 456.8,351.4 457.4,350.9 457.8,351.4 458.3,350.6 458.7,351.4 459.3,350.6 459.6,351.4 460.0,355.7 460.1,356.0 461.0,350.9 464.5,352.3 464.8,355.7 465.3,356.0 465.6,351.4 466.2,350.7 466.6,351.4 467.7,350.6 468.0,351.4 469.4,353.3 469.8,353.9 470.1,355.2 470.5,358.4 470.8,356.0 471.2,357.1 471.9,357.8 473.3,357.1 474.4,357.9 474.6,359.4 474.7,358.6 477.8,359.5 478.2,360.0 478.5,358.6 481.4,356.2 481.7,355.8 483.0,356.3 483.3,355.7 483.7,356.0 484.1,355.7 486.0,356.2 486.2,356.0 486.4,355.7 486.7,356.2 487.1,352.3 487.7,351.8 488.1,352.3 488.7,352.0 489.0,352.3 489.6,352.0 489.9,352.5 491.0,351.8 491.3,352.3 492.4,351.7 492.8,352.5 493.3,352.2 493.7,352.5 494.3,352.2 494.7,351.8 494.9,352.3 495.6,352.0 496.0,352.3 496.6,352.0 496.9,352.5 498.0,351.8 498.3,352.5 499.4,351.7 499.7,352.5 500.3,352.2 500.7,352.5 501.7,351.8 502.1,352.3 503.0,355.5 503.4,355.8 503.6,355.7 503.8,356.2 504.2,355.8 504.8,355.5 505.2,355.8 505.8,355.4 506.1,355.8 506.7,355.4 507.0,355.8 507.9,353.3 508.3,358.1 508.7,355.7 509.4,357.0 510.2,357.6 511.7,357.1 512.5,358.1 512.9,359.0 513.2,358.6 515.8,359.5 516.4,358.6 519.5,356.6 519.8,355.8 521.2,356.3 521.5,355.7 521.9,356.0 522.2,355.7 524.2,76.1 524.6,62.6 524.9,63.4 525.3,62.8 526.0,61.8 526.3,62.6 526.7,62.0 527.1,61.6 527.5,61.0 527.8,61.6 528.4,61.2 528.7,61.6 529.1,62.8 529.4,62.3 529.7,62.4 529.9,62.8 530.2,62.4 530.6,62.1 531.0,61.8 531.5,62.1 532.0,62.4 532.4,62.1 532.6,62.0 533.0,61.8 533.4,62.3 533.7,62.0 534.1,62.3 534.5,61.6 534.9,62.3 535.2,62.0 535.5,62.1 535.8,63.7 536.1,64.2 536.5,62.9 536.8,63.9 537.2,64.7 537.8,66.6 538.1,65.2 538.4,66.4 538.8,66.1 539.2,65.5 539.5,65.8 540.0,66.1 540.5,65.3 540.8,63.4 541.3,63.9 541.7,63.4 542.1,63.7 542.8,63.4 543.4,63.1 544.1,63.4 544.2,63.1 544.5,62.9 544.9,62.4 545.3,63.6 545.6,63.9 546.0,63.4 546.5,63.7 546.9,63.4 547.1,63.7 547.3,64.2 547.7,63.9 548.1,64.8 548.4,64.0 548.8,63.6 549.1,62.6 549.5,62.1 550.0,61.5 550.0,62.3 550.7,62.6 551.3,62.3 551.7,355.5 552.3,355.0 552.7,355.5 553.2,355.0 553.6,355.5 554.7,355.2 555.0,355.5 555.6,355.2 555.8,355.5 556.5,355.2 556.8,355.5 557.9,355.0 558.3,355.5 558.8,355.0 559.2,355.5 560.2,355.0 560.6,355.5 560.9,356.3 561.3,355.7 561.7,356.2 562.0,355.4 562.6,354.9 563.0,355.2 563.6,354.9 563.9,355.4 564.5,354.9 564.6,355.2 565.4,354.9 565.8,355.4 566.8,354.7 567.2,355.2 568.2,354.7 568.6,355.4 569.1,355.0 569.5,355.4 570.1,355.0 570.4,355.2 570.8,355.4 571.5,354.9 571.8,355.2 572.4,354.9 572.7,355.4 573.8,354.7 574.2,355.4 574.5,356.2 574.9,355.7 575.2,356.3 575.6,352.3 576.2,352.5 576.2,351.8 576.6,352.3 577.1,351.8 577.5,352.3 578.0,352.0 578.4,352.3 579.0,352.0 579.1,352.3 579.3,352.5 580.4,351.8 580.7,352.5 581.8,351.7 582.0,352.5 582.1,352.3 583.2,351.8 583.6,352.5 584.1,351.8 584.5,352.3 584.9,352.5 585.0,352.0 585.4,352.3 586.5,351.8 586.8,352.5 587.4,351.8 587.7,352.5 588.1,356.3 588.4,355.7 588.9,356.2 589.2,355.4 589.9,354.7 590.2,355.2 590.8,354.7 591.1,355.4 591.7,355.0 592.2,354.7 592.5,355.4 593.1,354.9 593.5,355.2 593.6,355.0 594.0,354.9 594.4,355.4 595.4,354.7 595.8,355.2 596.4,354.7 596.5,355.2 597.8,354.7 598.1,355.2 599.2,354.7 599.4,355.4 599.5,355.2 600.1,354.9 600.5,355.4 601.0,355.0 601.4,355.4 601.8,356.2 602.1,355.7 602.3,355.8 602.6,352.6 602.9,352.0 603.3,352.3 604.3,351.7 604.7,352.3 605.8,351.7 606.1,352.3 607.2,351.8 607.5,352.3 608.1,351.8 608.4,352.3 609.0,352.0 609.4,352.3 609.9,352.0 610.3,352.3 611.3,351.8 611.7,352.3 612.7,351.7 613.1,352.3 613.5,353.1 613.9,355.7 614.3,356.2 614.7,355.4 615.3,354.7 615.6,355.4 616.2,354.7 616.6,355.2 617.6,354.9 618.0,355.2 618.5,353.4 618.8,357.9 619.5,357.3 619.7,356.0 620.2,357.0 620.9,357.6 622.6,357.9 623.0,358.2 625.5,358.4 639.6,356.3 640.0,357.6 641.1,359.5 643.1,360.0 643.4,359.5 644.3,360.0 644.7,359.5 645.4,360.0 645.8,359.5 646.8,360.0 647.2,359.5 654.1,360.0 654.4,359.5 664.3,360.0 664.6,359.5 665.9,360.0 666.1,359.5 668.7,360.0 669.0,359.5 670.9,360.0 671.2,359.5 672.8,360.0 673.2,359.5 673.5,360.0 673.9,359.5 676.4,360.0 676.7,359.5 677.5,360.0 677.7,359.5 686.0,357.4 686.4,357.6 687.4,357.1 687.7,358.1 688.4,358.4 689.3,358.6 689.6,358.7 692.2,358.9" stroke="#4363d8" stroke-width="2" stroke-opacity="1.0" fill="none" /><line x1="51.1" y1="40" x2="51.1" y2="360" stroke="#e6194b" stroke-dasharray="4" stroke-width="1" /><text x="51.1" y="375" fill="#e6194b" font-size="12" text-anchor="middle">Anfang zuschneiden</text><line x1="692.7" y1="40" x2="692.7" y2="360" stroke="#e6194b" stroke-dasharray="4" stroke-width="1" /><text x="692.7" y="375" fill="#e6194b" font-size="12" text-anchor="middle">Ende zuschneiden</text></svg>